<svg width="68" height="64" viewBox="0 0 68 64" fill="none" xmlns="http://www.w3.org/2000/svg">
<path d="M30.6225 35.9978C31.9962 35.1395 33.2403 34.0927 34.3184 32.8927L38.2051 35.1372L41.7441 29.0073L37.8652 26.7677C38.3584 25.262 38.6485 23.665 38.7029 22.0094L43.1157 21.2313L41.8861 14.2609L37.4741 15.039C36.8644 13.5278 36.0464 12.1226 35.0543 10.8597L37.9384 7.42303L32.5163 2.87367L29.6346 6.30744C28.2272 5.55322 26.703 4.98942 25.0967 4.65111V0.172852H18.0187V4.65111C16.4122 4.98942 14.888 5.55322 13.4804 6.30744L10.5989 2.87367L5.1768 7.42319L8.06057 10.8599C7.06869 12.1227 6.25066 13.5281 5.64092 15.0391L1.2289 14.261L0 21.2315L4.41219 22.0096C4.46657 23.6653 4.75683 25.262 5.25001 26.7682L1.37078 29.0077L4.90991 35.1374L8.79677 32.8935C9.87454 34.0931 11.1187 35.14 12.4926 35.9983L10.9583 40.213L17.6096 42.6335L19.1418 38.4244C19.9314 38.5361 20.7377 38.5953 21.5577 38.5953C22.3777 38.5953 23.1841 38.5364 23.9738 38.4244L25.5057 42.6338L32.1567 40.2127L30.6225 35.9978ZM21.5574 30.4781C16.5733 30.4781 12.5184 26.4234 12.5184 21.4391C12.5184 16.4552 16.5733 12.4002 21.5574 12.4002C26.5415 12.4002 30.5963 16.4552 30.5963 21.4391C30.5963 26.4234 26.5416 30.4781 21.5574 30.4781Z" fill="white"/>
<path d="M61.0459 41.313L57.9948 42.3C57.413 41.2888 56.6938 40.3732 55.8657 39.5761L57.5709 36.8547L53.2776 34.1647L51.5734 36.8839C50.5013 36.4881 49.3652 36.2389 48.1925 36.1581L47.7501 32.9829L42.7319 33.6824L43.1743 36.8576C42.069 37.2558 41.0436 37.8068 40.1204 38.4803L37.7386 36.3303L34.3438 40.0914L36.7275 42.2438C36.1493 43.237 35.7085 44.3139 35.4256 45.4461L32.2204 45.3302L32.0371 50.3932L35.2421 50.5094C35.4444 51.6779 35.8081 52.7807 36.3068 53.8002L33.7779 55.7714L36.8923 59.7674L39.4263 57.7927C40.309 58.5365 41.2949 59.1557 42.3534 59.6289L41.6816 62.7692L46.6365 63.8276L47.3074 60.6922C47.8782 60.6939 48.4555 60.6551 49.0367 60.5742C49.6182 60.4934 50.1844 60.3713 50.7326 60.2146L52.2352 63.0476L56.7115 60.6737L55.2073 57.8375C56.0969 57.093 56.8747 56.2274 57.5209 55.2706L60.4979 56.4778L62.4016 51.7823L59.4304 50.5774C59.6307 49.4614 59.6786 48.3003 59.5544 47.1208L62.6062 46.1331L61.0459 41.313ZM48.2355 54.8193C44.7013 55.3114 41.4256 52.8373 40.9336 49.3036C40.4405 45.7696 42.9152 42.4936 46.4493 42.0018C49.9831 41.5089 53.2579 43.9834 53.7513 47.5177C54.243 51.0513 51.7691 54.3263 48.2355 54.8193Z" fill="white"/>
<path d="M67.8809 23.7544L67.9998 19.7561L65.4696 19.681C65.311 18.7998 65.0275 17.9272 64.6116 17.0883L66.5986 15.5185L64.1196 12.3805L62.1329 13.9496C61.4243 13.3608 60.6405 12.8808 59.8085 12.5184L60.3222 10.0361L56.4061 9.2251L55.8915 11.7058C54.989 11.7071 54.0804 11.8352 53.19 12.0973L51.9902 9.86893L48.4682 11.7657L49.6681 13.9944C48.9598 14.5928 48.352 15.2824 47.8538 16.0344L45.5005 15.0977L44.0215 18.8141L46.3767 19.7522C46.2216 20.6464 46.1914 21.5636 46.2932 22.4794L43.8892 23.2745L45.1444 27.0724L47.5484 26.2776C48.0192 27.087 48.5916 27.8029 49.241 28.4206L47.9112 30.5745L51.3143 32.6761L52.647 30.5183C53.5049 30.8261 54.4048 31.0136 55.3179 31.0726L55.6835 33.5812L59.6418 33.0031L59.2772 30.4976C59.6996 30.3422 60.1165 30.1552 60.5246 29.9354C60.933 29.7159 61.3186 29.47 61.6809 29.2032L63.5718 30.8868L66.2321 27.9001L64.3399 26.2146C64.7936 25.4191 65.1313 24.5646 65.3468 23.679L67.8809 23.7544ZM58.3501 25.8967C55.8694 27.2323 52.765 26.3013 51.4301 23.8216C50.094 21.3415 51.0252 18.2365 53.5059 16.9016C55.9853 15.5657 59.0895 16.4974 60.4256 18.9774C61.7603 21.4576 60.8298 24.561 58.3501 25.8967Z" fill="white"/>
</svg>
