<svg width="69" height="69" viewBox="0 0 69 69" fill="none" xmlns="http://www.w3.org/2000/svg">
<path d="M61.9512 4.27246H6.40871L4.27246 6.40871V61.9512L6.40871 64.0875H61.9512L64.0875 61.9512V6.40871L61.9512 4.27246ZM59.815 59.815H21.3625V51.27H31.1892C32.471 53.8335 35.4617 55.5425 38.4525 55.5425C43.1522 55.5425 46.9975 51.6972 46.9975 46.9975C46.9975 42.2977 43.1522 38.4525 38.4525 38.4525C33.7527 38.4525 29.9075 42.2977 29.9075 46.9975H17.09V59.815H8.54496V8.54496H17.09V18.3717C14.5265 19.6535 12.8175 22.6442 12.8175 25.635C12.8175 30.3347 16.6627 34.18 21.3625 34.18C26.0622 34.18 29.9075 30.3347 29.9075 25.635H38.4525C38.4525 30.3347 42.2977 34.18 46.9975 34.18C51.6972 34.18 55.5425 30.3347 55.5425 25.635C55.5425 20.9352 51.6972 17.09 46.9975 17.09C44.0067 17.09 41.016 18.799 39.7342 21.3625H28.6257C27.344 18.799 24.3532 17.09 21.3625 17.09V8.54496H59.815V59.815ZM34.18 46.9975C34.18 44.434 35.889 42.725 38.4525 42.725C41.016 42.725 42.725 44.434 42.725 46.9975C42.725 49.561 41.016 51.27 38.4525 51.27C35.889 51.27 34.18 49.561 34.18 46.9975ZM21.3625 21.3625C23.926 21.3625 25.635 23.0715 25.635 25.635C25.635 28.1985 23.926 29.9075 21.3625 29.9075C18.799 29.9075 17.09 28.1985 17.09 25.635C17.09 23.0715 18.799 21.3625 21.3625 21.3625ZM46.9975 21.3625C49.561 21.3625 51.27 23.0715 51.27 25.635C51.27 28.1985 49.561 29.9075 46.9975 29.9075C44.434 29.9075 42.725 28.1985 42.725 25.635C42.725 23.0715 44.434 21.3625 46.9975 21.3625Z" fill="white"/>
</svg>
